<?xml version="1.0" standalone="no"?>
<!DOCTYPE svg PUBLIC "-//W3C//DTD SVG 20010904//EN"
 "http://www.w3.org/TR/2001/REC-SVG-20010904/DTD/svg10.dtd">
<svg version="1.0" xmlns="http://www.w3.org/2000/svg"
 width="2552.000000pt" height="2552.000000pt" viewBox="0 0 2552.000000 2552.000000"
 preserveAspectRatio="xMidYMid meet">
<metadata>
Created by potrace 1.11, written by Peter Selinger 2001-2013
</metadata>
<g transform="translate(0.000000,2552.000000) scale(0.100000,-0.100000)"
fill="#000000" stroke="none">
<path d="M7597 25514 c-1 -1 -63 -5 -137 -8 -74 -4 -151 -9 -170 -11 -19 -2
-62 -6 -95 -9 -33 -4 -73 -8 -90 -11 -16 -2 -49 -7 -71 -9 -117 -14 -229 -35
-527 -101 -10 -2 -27 -7 -37 -10 -10 -3 -28 -8 -39 -10 -12 -2 -61 -16 -109
-30 -612 -184 -1135 -444 -1630 -812 -62 -46 -123 -93 -135 -103 -12 -10 -54
-45 -92 -77 -125 -104 -137 -115 -330 -308 -199 -199 -244 -247 -387 -427
-447 -555 -786 -1238 -957 -1923 -34 -138 -84 -383 -101 -500 -6 -44 -13 -91
-15 -105 -2 -14 -7 -52 -10 -85 -4 -33 -8 -76 -10 -95 -2 -19 -8 -87 -12 -150
-11 -151 -10 -15789 0 -15945 4 -66 10 -131 12 -145 2 -14 6 -54 10 -90 4 -36
8 -76 10 -90 2 -14 7 -45 10 -70 86 -637 323 -1309 662 -1878 69 -116 200
-320 214 -332 3 -3 20 -27 39 -55 41 -61 242 -314 313 -393 107 -121 428 -432
546 -531 506 -422 1060 -731 1677 -937 105 -35 202 -65 215 -68 13 -2 67 -16
119 -30 84 -23 228 -55 315 -70 17 -3 41 -8 55 -11 40 -9 299 -45 360 -51 30
-3 73 -7 95 -10 22 -2 90 -7 150 -11 61 -4 3532 -7 7715 -7 7200 0 7607 1
7638 17 66 36 103 129 79 202 -14 44 -66 94 -107 104 -20 5 -3217 9 -7560 9
-6742 0 -7803 2 -7883 18 -12 2 -53 6 -92 9 -38 3 -81 7 -95 10 -14 2 -45 7
-70 10 -63 8 -251 43 -335 61 -38 9 -77 17 -85 19 -82 17 -254 66 -380 107
-537 175 -1058 454 -1495 803 -166 132 -228 187 -396 355 -125 124 -194 198
-324 351 -52 61 -217 281 -275 369 -175 260 -371 630 -465 875 -15 39 -31 79
-36 90 -54 121 -169 509 -205 689 -26 131 -50 269 -60 335 -3 25 -8 57 -10 71
-2 14 -6 56 -10 95 -3 38 -7 81 -9 94 -16 102 -19 1196 -19 8056 0 6907 3
7961 19 8080 4 34 15 123 20 175 4 31 17 127 20 140 0 3 4 27 9 53 4 27 9 59
12 70 95 501 265 982 490 1391 94 171 115 207 189 321 192 296 401 554 644
795 183 182 236 230 409 368 320 255 746 508 1107 657 50 20 99 41 110 46 148
66 604 202 780 233 17 2 68 12 115 21 47 9 101 18 120 21 19 2 67 9 105 14 39
6 97 13 130 15 33 3 71 7 85 10 96 15 1105 18 7748 18 l7442 0 41 20 c65 32
99 105 85 183 -9 45 -68 110 -109 120 -25 6 -14933 13 -14940 8z"/>
<path d="M5445 22113 c-11 -2 -38 -16 -60 -32 -127 -87 -116 -280 20 -354 l40
-22 6430 -1 c3853 -1 6443 3 6463 8 18 5 51 26 73 45 115 104 87 280 -55 344
-40 18 -233 18 -6466 17 -3534 0 -6434 -3 -6445 -5z"/>
<path d="M5454 20200 c-174 -39 -215 -270 -66 -375 l44 -30 3461 -3 c3127 -2
3466 -1 3504 13 111 42 164 175 112 282 -24 50 -75 95 -125 111 -40 12 -6876
14 -6930 2z"/>
<path d="M13746 20202 c-26 -6 -86 -44 -108 -69 -48 -54 -61 -149 -29 -218 24
-53 55 -83 105 -106 40 -18 167 -19 4336 -19 2924 0 4307 3 4332 10 75 21 134
94 142 176 10 93 -34 171 -117 209 l-49 23 -4297 0 c-2363 -1 -4305 -3 -4315
-6z"/>
<path d="M5463 18289 c-68 -15 -131 -66 -153 -124 -41 -108 12 -231 116 -271
43 -16 181 -17 2337 -17 l2292 0 45 23 c80 41 114 96 115 186 0 82 -38 147
-110 183 l-49 26 -2282 0 c-1256 0 -2295 -3 -2311 -6z"/>
<path d="M11255 18288 c-114 -24 -182 -141 -152 -260 14 -58 77 -123 133 -138
38 -11 651 -13 3303 -13 l3256 0 40 20 c159 83 157 304 -5 381 -33 16 -267 17
-3287 17 -1789 0 -3268 -3 -3288 -7z"/>
<path d="M19208 18289 c-95 -25 -158 -105 -159 -202 -1 -77 37 -142 108 -184
l45 -26 1582 0 c1487 0 1583 1 1618 17 164 78 167 297 5 383 -30 16 -142 17
-1604 18 -865 0 -1583 -3 -1595 -6z"/>
<path d="M5437 16369 c-109 -37 -165 -146 -131 -258 18 -61 78 -120 137 -135
31 -8 1259 -11 4513 -11 l4469 1 40 21 c22 12 50 32 62 45 51 54 67 151 38
221 -19 47 -78 103 -123 118 -27 9 -1096 12 -4496 13 -4081 1 -4465 0 -4509
-15z"/>
<path d="M15935 16378 c-101 -21 -166 -102 -167 -206 0 -79 48 -153 121 -188
34 -17 157 -18 2396 -19 1897 -1 2369 1 2405 12 177 50 199 290 36 379 l-49
27 -2353 1 c-1294 0 -2369 -2 -2389 -6z"/>
<path d="M5435 14458 c-164 -57 -188 -282 -40 -373 l48 -30 2311 0 2311 0 39
21 c85 44 132 150 107 242 -16 56 -83 126 -136 141 -55 15 -4597 14 -4640 -1z"/>
<path d="M11474 14457 c-106 -41 -158 -148 -126 -262 15 -51 83 -118 137 -133
56 -16 10248 -15 10299 0 180 56 195 310 22 389 -40 18 -186 19 -5171 18
-3902 0 -5137 -3 -5161 -12z"/>
<path d="M5438 12545 c-19 -6 -45 -19 -58 -28 -31 -22 -80 -94 -81 -121 -4
-53 1 -101 12 -130 18 -46 81 -101 131 -115 33 -9 1397 -11 5820 -9 l5776 3
44 30 c127 90 122 275 -10 352 l-47 28 -5777 1 c-4390 1 -5785 -2 -5810 -11z"/>
<path d="M5437 10633 c-110 -32 -170 -165 -127 -279 15 -39 69 -91 113 -109
39 -16 267 -17 3699 -17 2011 0 3671 3 3689 7 62 14 107 52 139 120 47 96 2
216 -101 271 -33 18 -169 18 -3702 19 -2871 0 -3677 -2 -3710 -12z"/>
<path d="M13904 10635 c-51 -15 -104 -62 -126 -112 -49 -110 -1 -234 108 -279
35 -15 358 -16 3716 -16 l3677 -1 44 26 c24 14 57 45 73 68 26 37 29 51 29
115 0 64 -3 77 -30 116 -17 23 -51 54 -75 68 l-45 25 -3668 0 c-2439 0 -3679
-3 -3703 -10z"/>
<path d="M5478 8729 c-178 -26 -245 -232 -115 -357 65 -62 -47 -58 1702 -57
l1600 1 42 22 c152 80 156 281 8 368 l-45 26 -1573 1 c-866 1 -1594 -1 -1619
-4z"/>
<path d="M9859 8730 c-84 -5 -115 -17 -160 -59 -33 -31 -59 -95 -59 -144 0
-85 39 -150 115 -190 l40 -21 3228 -1 c2524 0 3237 2 3270 12 177 52 192 298
23 385 -38 19 -68 20 -3205 21 -1741 1 -3205 0 -3252 -3z"/>
<path d="M5437 6810 c-44 -13 -95 -57 -117 -99 -52 -102 -16 -225 83 -282 l42
-24 3080 0 3080 0 40 23 c138 81 144 274 11 360 l-41 27 -3075 2 c-1691 1
-3088 -2 -3103 -7z"/>
<path d="M13122 6800 c-141 -64 -166 -244 -48 -348 20 -17 50 -35 68 -40 47
-13 6112 -13 6163 0 108 27 175 147 144 261 -14 51 -83 122 -134 136 -29 8
-906 11 -3095 11 -2997 0 -3056 -1 -3098 -20z"/>
<path d="M5422 4890 c-158 -71 -171 -279 -24 -372 l37 -23 1985 -3 c1482 -2
1995 0 2025 9 55 16 91 43 119 92 59 101 25 230 -77 288 l-42 24 -1990 2
c-1929 2 -1992 1 -2033 -17z"/>
<path d="M10545 4894 c-172 -62 -180 -308 -11 -385 40 -18 125 -19 2671 -19
2540 1 2631 1 2670 19 161 75 167 293 10 379 -28 16 -230 17 -2665 19 -2263 1
-2641 -1 -2675 -13z"/>
<path d="M16828 4900 c-51 -15 -98 -51 -124 -97 -50 -84 -30 -206 43 -263 68
-53 -109 -50 2718 -50 1933 0 2631 3 2656 11 168 57 194 281 44 374 l-48 30
-2631 1 c-1447 1 -2643 -2 -2658 -6z"/>
<path d="M5454 2987 c-110 -23 -181 -143 -151 -259 13 -51 68 -112 119 -133
41 -16 270 -17 4018 -18 3766 0 3978 1 4013 18 50 23 104 85 117 134 24 91
-16 190 -98 238 l-47 28 -3967 0 c-2182 0 -3983 -3 -4004 -8z"/>
<path d="M14399 2987 c-111 -29 -176 -143 -146 -259 13 -51 68 -112 119 -133
41 -16 268 -17 4018 -18 l3975 0 44 23 c25 12 53 32 63 44 89 100 65 256 -50
323 l-47 28 -3972 0 c-2185 0 -3987 -4 -4004 -8z"/>
</g>
</svg>
